<?xml version="1.0" encoding="UTF-8"?>
<!DOCTYPE svg PUBLIC "-//W3C//DTD SVG 1.1//EN" "http://www.w3.org/Graphics/SVG/1.1/DTD/svg11.dtd">
<!-- Creator: CorelDRAW 2019 (64 Bit) -->
<svg xmlns="http://www.w3.org/2000/svg" xml:space="preserve" width="599.104mm" height="602.957mm" version="1.1" style="shape-rendering:geometricPrecision; text-rendering:geometricPrecision; image-rendering:optimizeQuality; fill-rule:evenodd; clip-rule:evenodd"
viewBox="0 0 5821.11 5858.55"
 xmlns:xlink="http://www.w3.org/1999/xlink">
 <defs>
  <style type="text/css">
   <![CDATA[
    .str1 {stroke:#373435;stroke-width:4.86;stroke-miterlimit:22.9256}
    .str0 {stroke:#373435;stroke-width:4.86;stroke-miterlimit:22.9256}
    .str2 {stroke:#373435;stroke-width:4.86;stroke-linejoin:bevel;stroke-miterlimit:22.9256}
    .fil10 {fill:none}
    .fil9 {fill:#FEFEFE}
    .fil8 {fill:#373435}
    .fil5 {fill:#F7ADAF}
    .fil11 {fill:#073B80}
    .fil24 {fill:#0877B9}
    .fil23 {fill:#1070B3}
    .fil12 {fill:#1D4F38}
    .fil22 {fill:#2489CA}
    .fil25 {fill:#3C99D4}
    .fil0 {fill:#B3B3B3}
    .fil2 {fill:#B52E31}
    .fil1 {fill:#DD0031}
    .fil4 {fill:#E6B48A}
    .fil6 {fill:#EDC09F}
    .fil21 {fill:#E0E0E0}
    .fil18 {fill:#EBEBEB}
    .fil15 {fill:whitesmoke}
    .fil14 {fill:#D2D4D4}
    .fil13 {fill:#267175}
    .fil17 {fill:whitesmoke}
    .fil16 {fill:#3F7F8C}
    .fil20 {fill:#BABABA}
    .fil19 {fill:#5B3866}
    .fil3 {fill:url(#id0)}
    .fil7 {fill:url(#id1)}
   ]]>
  </style>
  <linearGradient id="id0" gradientUnits="userSpaceOnUse" x1="3740.41" y1="1862.41" x2="2115.8" y2="1837.98">
   <stop offset="0" style="stop-opacity:1; stop-color:#E7B48A"/>
   <stop offset="1" style="stop-opacity:1; stop-color:#EDC09F"/>
  </linearGradient>
  <linearGradient id="id1" gradientUnits="userSpaceOnUse" x1="4595.45" y1="1685.28" x2="2436.42" y2="1694.44">
   <stop offset="0" style="stop-opacity:1; stop-color:#CE9C77"/>
   <stop offset="0.34902" style="stop-opacity:1; stop-color:#DDAB83"/>
   <stop offset="1" style="stop-opacity:1; stop-color:#EDBA8F"/>
  </linearGradient>
 </defs>
 <g id="Camada_x0020_1">
  <metadata id="CorelCorpID_0Corel-Layer"/>
  <g id="_1542586212816">
   <path class="fil0" d="M2929.28 0.22c1600.54,20.05 2891.84,1323.76 2891.84,2929.05 0,1605.29 -1291.3,2909.01 -2891.84,2929.28 -12.49,0 -24.99,-0.07 -37.44,-0.22 -1600.54,-20.05 -2891.84,-1323.76 -2891.84,-2929.05 0,-1605.29 1291.3,-2909.01 2891.84,-2929.28 12.49,0 24.98,0.07 37.44,0.22z"/>
   <path class="fil1" d="M2928.7 5768.05c-1567.8,0 -2838.77,-1270.97 -2838.77,-2838.77 0,-1567.8 1270.97,-2838.77 2838.77,-2838.77l0 5677.54z"/>
   <path class="fil2" d="M2892.42 5768.05c1567.8,0 2838.77,-1270.97 2838.77,-2838.77 0,-1567.8 -1270.97,-2838.77 -2838.77,-2838.77l0 5677.54z"/>
   <path class="fil3" d="M2820.96 1298.99c3.43,35.66 9.33,192.29 12.72,208.91 30.84,151.44 -314.8,89.18 -314.8,360.61 0,25.03 3.13,330.91 -13.7,429.51 -3.13,18.33 12.19,169.71 15.2,223.68 0.66,12.03 366.63,-406.85 449.39,-603.5 6.35,-15.09 42.99,-628.92 54.37,-803.88 1.78,-27.46 -203.51,186.51 -203.18,184.68z"/>
   <path class="fil4 str0" d="M2536.92 2180.52c-59.48,25 -103.91,80.61 -158.73,96.14 5.01,107.74 77,106.01 185.6,45.53 -14.42,-77.88 -12.45,-63.79 -26.87,-141.67z"/>
   <path class="fil5 str0" d="M2490.29 2214.61c-32.96,14.72 -57.58,47.45 -87.96,56.59 2.78,63.42 42.67,62.4 102.84,26.8 -7.99,-45.85 -6.9,-37.55 -14.89,-83.39z"/>
   <path class="fil6 str0" d="M1719.87 2104.8c6.99,300.07 446.26,369.32 763.81,102.82l36.7 314.08 716.62 -595.26 19.61 -784.29 -984.98 291.22c-2.14,35.89 -7.67,98.35 -9.79,134.23 -0.61,10.24 7.34,-14.23 129.13,26.63 -106.57,-33.12 -131.77,-22.19 -133.83,-22.07 -6.2,0.37 -12.36,0.84 -18.43,1.38 -418.81,37 -526.38,438.62 -518.83,531.26z"/>
   <path class="fil7" d="M3031.39 1199.13c-143.96,133.49 -98.76,57.59 -81.48,238.71 12.46,130.61 -27.53,272.57 -93.3,375.99 -1.1,1.73 0.74,170.24 -1.05,191.72 -9.35,112.3 -224.45,197.93 -219.52,293.51 1.51,29.33 -35.88,92.13 -19.29,127.98l610.9 -507.44 19.61 -784.29 -215.87 63.83z"/>
   <g>
    <g>
     <ellipse class="fil8" cx="2516.74" cy="1484.54" rx="37.59" ry="54.21"/>
     <circle class="fil9" cx="2507.12" cy="1502.02" r="20.11"/>
    </g>
    <g>
     <ellipse class="fil8" cx="2379.44" cy="1496.07" rx="37.59" ry="54.21"/>
     <circle class="fil9" cx="2369.82" cy="1513.55" r="20.11"/>
    </g>
    <path class="fil10 str0" d="M2514.97 1587.67c76.62,-53.16 155.63,-82.89 286.78,-73.45"/>
   </g>
   <path class="fil11 str1" d="M2425.6 1012.99c288.83,-6.9 601.51,-14.87 839.88,-71.29l331.54 -251.8 -553.26 -191.84c-203.61,32.92 -399.53,70.62 -618.15,101.94 -123.43,17.68 -254.09,33.33 -397.45,44.94l86.94 377.91c96.65,-4.81 201.9,-7.26 310.52,-9.86zm839.88 -71.29c-238.36,56.42 -551.05,64.39 -839.88,71.29 -108.62,2.6 -213.87,5.04 -310.52,9.86l50.84 221.02c83.42,-1.86 170.89,-2.32 259.67,-2.71 108.45,-0.48 218.87,-0.84 326.27,-3.54 56.06,-1.41 111.31,-3.45 165.03,-6.48 133.43,-7.52 257.44,-21.09 361.17,-46.03 -4.2,-81.14 -8.39,-162.27 -12.59,-243.41zm-513.6 295.92c-107.4,2.7 -217.82,3.07 -326.27,3.54 -88.79,0.38 -176.25,0.84 -259.67,2.71 -29.38,57.36 -58.76,114.71 -88.13,172.06 136.97,7.39 251.13,5.82 347.8,-2.93 250.33,-22.67 383.38,-93.53 491.3,-181.87 -53.72,3.03 -108.96,5.07 -165.03,6.48z"/>
   <g>
    <path class="fil0" d="M2301.67 582.46c160.07,2 289.22,132.39 289.22,292.94 0,160.55 -129.15,290.93 -289.22,292.96 -1.25,0 -2.5,-0.01 -3.74,-0.02 -160.07,-2 -289.22,-132.39 -289.22,-292.94 0,-160.55 129.14,-290.94 289.22,-292.96 1.25,0 2.5,0.01 3.74,0.02z"/>
    <path class="fil1" d="M2301.56 1152.28c-152.92,0 -276.89,-123.97 -276.89,-276.89 0,-152.92 123.97,-276.89 276.89,-276.89l0 553.78z"/>
    <path class="fil2" d="M2298.02 1152.28c152.92,0 276.89,-123.97 276.89,-276.89 0,-152.92 -123.97,-276.89 -276.89,-276.89l0 553.78z"/>
    <path class="fil9" d="M2298.29 667.13l-154.38 346.16 0 0 57.56 0 0 0 31.04 -77.45 131.04 0 31.04 77.45 0 0 57.56 0 0 0 -153.85 -346.16 0 0 0 0 0 0 0 0zm45.09 220.96l-90.19 0 45.09 -108.49 45.09 108.49z"/>
   </g>
   <g>
    <path class="fil12 str0" d="M2683.33 4977.55c-21.6,-47.02 -30.61,-121.32 -52.21,-168.34 -119.95,-96.88 -237.8,-189.56 -357.74,-286.44 -39.87,61.55 -94.43,146.19 -134.3,207.74 280.04,204.05 429.99,250.72 544.25,247.03z"/>
    <path class="fil12 str0" d="M3927.44 3676.86c-437.86,395.19 -876.77,777.8 -1314.64,1172.99 -9.09,23.78 -36.02,74.84 -26.23,83.94 556.77,363.02 886.92,333.64 1065.98,258.1 112.61,-492.42 183.26,-1010.02 274.89,-1515.03z"/>
    <path class="fil12 str0" d="M4562.93 3423.62c-4.39,-25.4 -120.74,-161.24 -181.1,-241.86l-652.3 794.04c114.15,119.27 245.09,238.54 359.24,357.82 158.06,-303.33 509.29,-851.84 474.16,-910z"/>
   </g>
   <g>
    <g>
     <polygon class="fil13" points="1383.17,3790.46 1360.51,3736.18 3333.14,1695.27 3355.81,1749.55 "/>
     <polygon class="fil10 str2" points="1383.17,3790.46 1360.51,3736.18 3333.14,1695.27 3355.81,1749.55 "/>
     <polygon class="fil14" points="3355.81,1749.55 3333.14,1695.27 4694.68,2804.81 4717.35,2859.09 "/>
     <polygon class="fil10 str2" points="3355.81,1749.55 3333.14,1695.27 4694.68,2804.81 4717.35,2859.09 "/>
    </g>
    <polygon class="fil15 str0" points="1383.17,3790.46 3355.81,1749.55 4717.35,2859.09 2744.71,4900 "/>
    <g>
     <polygon class="fil16" points="1483.45,3820.07 1460.78,3765.77 3433.42,1724.86 3456.08,1779.16 "/>
     <polygon class="fil10 str2" points="1483.45,3820.07 1460.78,3765.77 3433.42,1724.86 3456.08,1779.16 "/>
     <polygon class="fil17" points="3456.08,1779.16 3433.42,1724.86 4794.96,2834.4 4817.62,2888.7 "/>
     <polygon class="fil10 str2" points="3456.08,1779.16 3433.42,1724.86 4794.96,2834.4 4817.62,2888.7 "/>
    </g>
    <polygon class="fil18 str0" points="1483.45,3820.07 3456.08,1779.16 4817.62,2888.7 2844.98,4929.61 "/>
    <g>
     <polygon class="fil19" points="1605.37,3853.06 1582.72,3798.78 3555.36,1757.88 3578.01,1812.16 "/>
     <polygon class="fil10 str2" points="1605.37,3853.06 1582.72,3798.78 3555.36,1757.88 3578.01,1812.16 "/>
     <polygon class="fil20" points="3578.01,1812.16 3555.36,1757.88 4916.9,2867.41 4939.55,2921.7 "/>
     <polygon class="fil10 str2" points="3578.01,1812.16 3555.36,1757.88 4916.9,2867.41 4939.55,2921.7 "/>
    </g>
    <polygon class="fil21 str0" points="1605.37,3853.06 3578.01,1812.16 4939.55,2921.7 2966.91,4962.6 "/>
    <g>
     <path class="fil22" d="M2756.25 2820.45c0,0 -13.16,-37.13 43.8,-47.55l138.51 -32.02c0,0 42.48,-12.96 50.83,22.16l318.43 986.16 -211.01 281.78c0,0 -33.5,44.05 -85.33,10.01l-255.23 -1220.55z"/>
     <path class="fil23" d="M2815.73 3104.8l-331.7 79.16c0,0 -31.54,4.74 -31.92,42.62l27.5 132.18c0,0 3.82,35.02 55.85,24.8l327.69 -51.92 -47.42 -226.84z"/>
     <path class="fil24" d="M3157.83 3286.65l568.33 -91.76 207.56 -281.5c0,0 30.49,-69.21 -44.43,-64.22l-809.87 193.67 78.41 243.81z"/>
     <path class="fil25" d="M3011.19 4041.37c4.49,32.75 35.08,38.87 35.08,38.87l384.91 5.92c54.45,-6.15 72.61,-39.75 72.61,-39.75l630.03 -841.33c27.69,-36.98 0.27,-69.2 0.27,-69.2l-152.72 -246.7c-27.85,-61.27 -92.09,-40 -92.09,-40 0,0 69.18,-9.41 44.43,64.22l-833.07 1112.46c-5.73,7.65 -12.95,14.33 -21.2,19.43 -16.23,9.81 -39.27,14.83 -68.61,-7.76l0.36 3.86z"/>
    </g>
   </g>
   <g>
    <path class="fil6 str0" d="M1521.13 4147.66c10.12,37.8 -5.65,151.98 81.31,141.29 8.31,-1.02 38.83,-5.3 42.49,-13.2 29.05,-62.59 20.44,-73.29 35.87,-102.11 10.58,-19.76 38.83,-51.66 51.21,-58.05 22.28,-11.5 37.77,-24.84 37.77,-43.47 0,-70.57 -57.92,-141.05 -135.7,-126.61 -89.07,16.54 -130.8,135.48 -112.95,202.15z"/>
    <path class="fil6 str0" d="M1661.72 4315.53c9.18,37 19.65,110.48 81.31,141.29 7.48,3.73 48.64,-8.47 54.03,-15.3 22.87,-28.94 12.37,-172.73 32.52,-192.69 73.79,-73.03 18.06,-173.44 -53.87,-155.39 -87.86,22.05 -130.61,155.1 -114,222.09z"/>
    <path class="fil10 str0" d="M1628.08 4058.2c34.41,27.35 61.22,41.01 42.57,68.32 -18.65,27.31 -58.56,12.2 -83.53,-3.6 -24.97,-15.81 -37.09,-39.96 -24.73,-60.98 12.36,-21.02 31.28,-31.09 65.7,-3.74z"/>
    <path class="fil10 str0" d="M1746.64 4207.19c47.38,41.66 85.76,55.42 60.69,91.72 -25.07,36.3 -76.68,-11.2 -101.65,-27 -24.97,-15.81 -37.09,-39.96 -24.73,-60.98 12.36,-21.02 18.32,-45.4 65.7,-3.74z"/>
    <path class="fil6 str0" d="M2021.04 4458.53c1.2,11.78 27.49,91.77 118.36,60.15 93.5,-32.53 117.75,-158.61 98.62,-221.47 -15.22,-50 -22.1,-71.82 -74.85,-79.4 -92.12,-13.22 -155.28,111.72 -142.13,240.71z"/>
    <path class="fil10 str0" d="M2122.78 4288.86c58.27,24.18 66.51,22.74 54.48,65.18 -12.03,42.44 -39.47,23.55 -68.2,16.63 -28.73,-6.91 -56.39,-26.93 -51.46,-50.8 4.93,-23.87 6.91,-55.18 65.19,-31.01z"/>
    <path class="fil6 str0" d="M1812.77 4393.7c1.2,11.8 -0.05,157.49 133.58,133.37 64.56,-11.65 66.09,-44.44 74.69,-68.54 9.43,-26.42 44.91,-129.12 44.91,-150.83 0,-70.57 -52.68,-152.58 -130.46,-138.15 -89.06,16.53 -135.9,95.15 -122.73,224.15z"/>
    <path class="fil10 str0" d="M1909.61 4243.5c58.27,24.18 100.09,35.33 88.06,77.77 -12.03,42.44 -85.64,19.35 -114.37,12.43 -28.73,-6.92 -54.28,-22.73 -49.36,-46.6 4.93,-23.87 17.4,-67.77 75.68,-43.6z"/>
   </g>
   <g>
    <path class="fil6 str0" d="M3846.07 4104.5c-3.69,2.25 -224.88,-11.21 -352.44,83.17 -29.3,21.68 -213.98,-39.41 -257.73,-74.22 -54.84,-43.63 -146.93,51.79 -105.64,161.45 24.17,64.2 68.33,134.64 141.39,140 48.73,3.57 137.19,26.59 174.95,-3.99 43.13,-34.92 14.71,39.12 7.42,53.08 -56.78,108.76 -214.54,179.77 -214.42,307.56 0.04,45.22 100.99,74.73 154.15,33.4 82.05,-63.79 126.92,-128.28 133.47,-144.63 0.26,-0.65 -43.14,69.07 -19.19,105.96 27.29,42.03 128.03,-18.62 117.05,-98.62 -0.11,-0.81 22.61,168.15 154.62,-16.44 82.86,-115.86 203.91,-272.48 195.3,-415.8 -1.53,-25.56 -127.95,-131.51 -128.94,-130.91z"/>
    <path class="fil6 str0" d="M3241.14 4149.08c-3.28,26.8 -17.26,155.6 0.39,156.82 0.26,0.02 32,32.73 59.87,5.47 2.94,-2.88 15.76,-55.07 16.15,-62.64 1.15,-22.26 5.53,-30.18 -4.85,-48.13 -8.27,-14.29 -67.34,-86.05 -71.56,-51.52z"/>
    <path class="fil10 str0" d="M3451.81 4243.13c-7.48,20.07 -1.81,54.52 14.43,68.87"/>
    <path class="fil10 str0" d="M3475.88 4251.38c5.71,2.53 0.26,11.91 8.25,14.56"/>
   </g>
  </g>
 </g>
</svg>
